<svg width="48" height="48" viewBox="0 0 48 48" fill="none" xmlns="http://www.w3.org/2000/svg">
    <rect width="48" height="48" rx="24" fill="white" fill-opacity="0.1"/>
    <path d="M27.9688 21L32.9687 26" stroke="white" stroke-width="2" stroke-linecap="round" stroke-linejoin="round"/>
    <path fill-rule="evenodd" clip-rule="evenodd" d="M24.3457 16.4718C24.5487 16.5542 24.7221 16.6936 24.8442 16.8724C24.9662 17.0512 25.0313 17.2614 25.0312 17.4765V30.5239C25.0312 30.7389 24.966 30.9491 24.8439 31.1279C24.7218 31.3066 24.5483 31.446 24.3453 31.5282C24.1423 31.6105 23.9189 31.632 23.7034 31.5901C23.4879 31.5482 23.29 31.4447 23.1346 31.2926L19.0157 27.2621H16.1424C15.8477 27.2621 15.5651 27.1475 15.3567 26.9436C15.1483 26.7397 15.0312 26.4631 15.0312 26.1748V21.8256C15.0312 21.5372 15.1483 21.2607 15.3567 21.0568C15.5651 20.8529 15.8477 20.7383 16.1424 20.7383H19.0157L23.1346 16.7077C23.29 16.5556 23.488 16.452 23.7036 16.41C23.9191 16.368 24.1426 16.3895 24.3457 16.4718Z" fill="white"/>
    <path d="M32.7812 21L27.7812 26" stroke="white" stroke-width="2" stroke-linecap="round" stroke-linejoin="round"/>
    </svg>
    